<svg width="200" height="200" viewBox="0 0 200 200" fill="none" xmlns="http://www.w3.org/2000/svg">
	<g clip-path="url(#clip0_357_2)">
		<rect width="200" height="200" rx="20" fill="white" />
		<path
			d="M97.76 160.24C88.8 160.24 80.5333 158.747 72.96 155.76C65.4933 152.773 58.9333 148.613 53.28 143.28C47.7333 137.947 43.4133 131.653 40.32 124.4C37.2267 117.147 35.68 109.307 35.68 100.88C35.68 92.3467 37.1733 84.5067 40.16 77.36C43.2533 70.2133 47.5733 63.9733 53.12 58.64C58.6667 53.3067 65.1733 49.2 72.64 46.32C80.2133 43.3333 88.48 41.84 97.44 41.84C106.4 41.84 114.613 43.3333 122.08 46.32C129.653 49.2 136.213 53.3067 141.76 58.64C147.307 63.9733 151.573 70.2667 154.56 77.52C157.653 84.6667 159.2 92.5067 159.2 101.04C159.2 109.467 157.653 117.307 154.56 124.56C151.573 131.707 147.307 138 141.76 143.44C136.213 148.773 129.707 152.933 122.24 155.92C114.773 158.8 106.613 160.24 97.76 160.24ZM147.2 168.4L92 113.2L109.28 95.92L164.48 151.12L147.2 168.4ZM97.44 132.08C103.413 132.08 108.587 130.8 112.96 128.24C117.333 125.68 120.693 122.053 123.04 117.36C125.387 112.667 126.56 107.173 126.56 100.88C126.56 96.1867 125.867 91.9733 124.48 88.24C123.2 84.4 121.28 81.1467 118.72 78.48C116.16 75.7067 113.067 73.6267 109.44 72.24C105.92 70.7467 101.92 70 97.44 70C91.4667 70 86.2933 71.28 81.92 73.84C77.5467 76.2933 74.1867 79.8667 71.84 84.56C69.4933 89.1467 68.32 94.5867 68.32 100.88C68.32 105.68 68.96 110 70.24 113.84C71.6267 117.68 73.6 120.987 76.16 123.76C78.72 126.427 81.76 128.507 85.28 130C88.9067 131.387 92.96 132.08 97.44 132.08Z"
			fill="black" />
		<line x1="160" y1="141.988" x2="134.544" y2="167.444" stroke="white" stroke-width="5" />
		<line x1="74.806" y1="115.737" x2="49.7983" y2="141.633" stroke="white" stroke-width="5" />
	</g>
	<defs>
		<clipPath id="clip0_357_2">
			<rect width="200" height="200" rx="20" fill="white" />
		</clipPath>
	</defs>
</svg>
